<svg width="214" height="160" viewBox="0 0 214 160" fill="none" xmlns="http://www.w3.org/2000/svg">
<g clip-path="url(#clip0_486_14418)">
<path d="M0 0H214V160H0V0Z" fill="url(#paint0_linear_486_14418)"/>
<g clip-path="url(#paint1_angular_486_14418_clip_path)" data-figma-skip-parse="true"><g transform="matrix(0 -0.0656945 0.0657537 0 106.741 97.8777)"><foreignObject x="-1359.22" y="-1359.22" width="2718.43" height="2718.43"><div xmlns="http://www.w3.org/1999/xhtml" style="background:conic-gradient(from 90deg,rgba(142, 155, 131, 1) 0deg,rgba(252, 163, 22, 1) 18deg,rgba(255, 149, 10, 1) 54deg,rgba(255, 104, 11, 1) 90deg,rgba(0, 82, 221, 1) 270deg,rgba(9, 121, 245, 1) 306deg,rgba(32, 147, 241, 1) 342deg,rgba(142, 155, 131, 1) 360deg);height:100%;width:100%;opacity:1"></div></foreignObject></g></g><path d="M185.002 121.491C188.841 122.649 192.932 120.51 193.812 116.598C196.283 105.612 196.561 94.2385 194.603 83.108C192.227 69.5992 186.625 56.8288 178.252 45.834C169.879 34.8392 158.972 25.9301 146.415 19.8302C133.859 13.7303 120.008 10.6117 105.987 10.7277C91.9661 10.8437 78.171 14.191 65.722 20.4977C53.2729 26.8044 42.5211 35.8928 34.3398 47.0245C26.1584 58.1562 20.7783 71.0175 18.6363 84.5636C16.8711 95.7269 17.346 107.096 20.0086 118.041C20.9561 121.936 25.0803 124.004 28.8982 122.783L59.353 113.039C63.2439 111.794 65.2941 107.603 64.7219 103.558C64.1595 99.5827 64.1886 95.535 64.8199 91.5427C65.8391 85.0973 68.399 78.9777 72.2918 73.6811C76.1846 68.3845 81.3004 64.0602 87.2238 61.0594C93.1472 58.0586 99.7111 56.4659 106.382 56.4107C113.054 56.3555 119.644 57.8394 125.619 60.7418C131.593 63.6442 136.783 67.8832 140.767 73.1147C144.751 78.3461 147.416 84.4225 148.547 90.8501C149.248 94.8325 149.347 98.8803 148.853 102.866C148.35 106.918 150.47 111.072 154.379 112.251L185.002 121.491Z" data-figma-gradient-fill="{&#34;type&#34;:&#34;GRADIENT_ANGULAR&#34;,&#34;stops&#34;:[{&#34;color&#34;:{&#34;r&#34;:0.98823529481887817,&#34;g&#34;:0.63921570777893066,&#34;b&#34;:0.086274512112140656,&#34;a&#34;:1.0},&#34;position&#34;:0.050000000745058060},{&#34;color&#34;:{&#34;r&#34;:1.0,&#34;g&#34;:0.58431375026702881,&#34;b&#34;:0.039215687662363052,&#34;a&#34;:1.0},&#34;position&#34;:0.15000000596046448},{&#34;color&#34;:{&#34;r&#34;:1.0,&#34;g&#34;:0.40784314274787903,&#34;b&#34;:0.043137256056070328,&#34;a&#34;:1.0},&#34;position&#34;:0.250},{&#34;color&#34;:{&#34;r&#34;:0.0,&#34;g&#34;:0.32156863808631897,&#34;b&#34;:0.86666667461395264,&#34;a&#34;:1.0},&#34;position&#34;:0.750},{&#34;color&#34;:{&#34;r&#34;:0.035294119268655777,&#34;g&#34;:0.47450980544090271,&#34;b&#34;:0.96078431606292725,&#34;a&#34;:1.0},&#34;position&#34;:0.85000002384185791},{&#34;color&#34;:{&#34;r&#34;:0.12549020349979401,&#34;g&#34;:0.57647061347961426,&#34;b&#34;:0.94509804248809814,&#34;a&#34;:1.0},&#34;position&#34;:0.94999998807907104}],&#34;stopsVar&#34;:[{&#34;color&#34;:{&#34;r&#34;:0.98823529481887817,&#34;g&#34;:0.63921570777893066,&#34;b&#34;:0.086274512112140656,&#34;a&#34;:1.0},&#34;position&#34;:0.050000000745058060},{&#34;color&#34;:{&#34;r&#34;:1.0,&#34;g&#34;:0.58431375026702881,&#34;b&#34;:0.039215687662363052,&#34;a&#34;:1.0},&#34;position&#34;:0.15000000596046448},{&#34;color&#34;:{&#34;r&#34;:1.0,&#34;g&#34;:0.40784314274787903,&#34;b&#34;:0.043137256056070328,&#34;a&#34;:1.0},&#34;position&#34;:0.250},{&#34;color&#34;:{&#34;r&#34;:0.0,&#34;g&#34;:0.32156863808631897,&#34;b&#34;:0.86666667461395264,&#34;a&#34;:1.0},&#34;position&#34;:0.750},{&#34;color&#34;:{&#34;r&#34;:0.035294119268655777,&#34;g&#34;:0.47450980544090271,&#34;b&#34;:0.96078431606292725,&#34;a&#34;:1.0},&#34;position&#34;:0.85000002384185791},{&#34;color&#34;:{&#34;r&#34;:0.12549020349979401,&#34;g&#34;:0.57647061347961426,&#34;b&#34;:0.94509804248809814,&#34;a&#34;:1.0},&#34;position&#34;:0.94999998807907104}],&#34;transform&#34;:{&#34;m00&#34;:-3.9141229862295346e-13,&#34;m01&#34;:131.50743103027344,&#34;m02&#34;:40.987598419189453,&#34;m10&#34;:-131.38893127441406,&#34;m11&#34;:8.0879937079322839e-14,&#34;m12&#34;:163.57212829589844},&#34;opacity&#34;:1.0,&#34;blendMode&#34;:&#34;NORMAL&#34;,&#34;visible&#34;:true}"/>
<path d="M50.2008 110.26C49.7143 110.26 49.3026 110.173 48.9657 109.998C48.6289 109.824 48.3544 109.584 48.1423 109.278C47.9302 108.966 47.7774 108.607 47.6838 108.202C47.5902 107.79 47.5435 107.353 47.5435 106.892C47.5435 106.418 47.5902 105.975 47.6838 105.563C47.7836 105.151 47.9396 104.79 48.1517 104.478C48.37 104.166 48.6476 103.923 48.9844 103.748C49.3275 103.573 49.7392 103.486 50.2196 103.486C50.7186 103.486 51.1366 103.576 51.4734 103.757C51.8165 103.938 52.091 104.191 52.2968 104.515C52.5089 104.833 52.6586 105.195 52.746 105.601C52.8395 106.006 52.8863 106.43 52.8863 106.873C52.8863 107.329 52.8395 107.759 52.746 108.164C52.6524 108.57 52.5027 108.932 52.2968 109.25C52.091 109.562 51.8165 109.808 51.4734 109.989C51.1303 110.17 50.7061 110.26 50.2008 110.26ZM50.2008 109.025C50.5065 109.025 50.7467 108.957 50.9213 108.819C51.1022 108.676 51.2364 108.492 51.3237 108.267C51.4173 108.043 51.4765 107.809 51.5015 107.566C51.5327 107.316 51.5483 107.085 51.5483 106.873C51.5483 106.674 51.5327 106.452 51.5015 106.209C51.4765 105.959 51.4204 105.725 51.333 105.507C51.2457 105.282 51.1147 105.098 50.9401 104.955C50.7654 104.811 50.5283 104.74 50.2289 104.74C49.9295 104.74 49.6893 104.811 49.5084 104.955C49.3275 105.092 49.1903 105.273 49.0967 105.498C49.0094 105.722 48.9501 105.956 48.9189 106.199C48.8877 106.443 48.8722 106.667 48.8722 106.873C48.8722 107.079 48.8846 107.307 48.9096 107.556C48.9408 107.806 49 108.043 49.0874 108.267C49.1747 108.492 49.3057 108.676 49.4804 108.819C49.6613 108.957 49.9014 109.025 50.2008 109.025Z" fill="white"/>
<path d="M156.949 108.065C156.63 108.065 156.325 108.028 156.032 107.953C155.738 107.878 155.47 107.76 155.227 107.598C154.984 107.435 154.781 107.23 154.619 106.98C154.456 106.724 154.357 106.419 154.319 106.063H155.648C155.692 106.238 155.776 106.384 155.901 106.503C156.032 106.615 156.187 106.696 156.368 106.746C156.556 106.796 156.752 106.821 156.958 106.821C157.095 106.821 157.229 106.809 157.36 106.784C157.497 106.759 157.619 106.715 157.725 106.653C157.837 106.59 157.925 106.506 157.987 106.4C158.05 106.294 158.081 106.16 158.081 105.998C158.081 105.848 158.053 105.723 157.997 105.623C157.94 105.524 157.866 105.442 157.772 105.38C157.678 105.318 157.566 105.274 157.435 105.249C157.31 105.224 157.176 105.212 157.033 105.212H156.265V104.07H156.78C156.942 104.07 157.089 104.054 157.22 104.023C157.351 103.986 157.46 103.936 157.547 103.874C157.641 103.805 157.713 103.724 157.763 103.63C157.812 103.53 157.837 103.418 157.837 103.293C157.837 103.106 157.797 102.96 157.716 102.854C157.635 102.741 157.522 102.66 157.379 102.61C157.235 102.56 157.07 102.535 156.883 102.535C156.708 102.535 156.543 102.564 156.387 102.62C156.237 102.67 156.113 102.744 156.013 102.844C155.913 102.944 155.848 103.066 155.816 103.209H154.516C154.553 102.872 154.644 102.585 154.787 102.348C154.931 102.105 155.115 101.905 155.339 101.75C155.564 101.594 155.813 101.481 156.088 101.413C156.368 101.338 156.658 101.3 156.958 101.3C157.245 101.3 157.519 101.332 157.781 101.394C158.043 101.456 158.277 101.559 158.483 101.703C158.695 101.84 158.864 102.024 158.988 102.255C159.113 102.486 159.175 102.763 159.175 103.088C159.175 103.287 159.141 103.474 159.073 103.649C159.01 103.824 158.917 103.98 158.792 104.117C158.673 104.248 158.533 104.357 158.371 104.444C158.614 104.513 158.814 104.625 158.97 104.781C159.126 104.937 159.241 105.121 159.316 105.333C159.397 105.545 159.437 105.773 159.437 106.016C159.437 106.416 159.363 106.749 159.213 107.018C159.069 107.28 158.876 107.488 158.633 107.644C158.39 107.794 158.121 107.903 157.828 107.972C157.535 108.034 157.242 108.065 156.949 108.065ZM162.912 108.075C162.444 108.075 162.044 107.988 161.714 107.813C161.383 107.638 161.112 107.398 160.9 107.092C160.688 106.787 160.532 106.44 160.432 106.054C160.338 105.661 160.292 105.249 160.292 104.819C160.292 104.345 160.345 103.899 160.451 103.481C160.557 103.056 160.722 102.682 160.947 102.358C161.171 102.027 161.455 101.768 161.798 101.581C162.147 101.394 162.565 101.3 163.052 101.3C163.426 101.3 163.766 101.366 164.072 101.497C164.384 101.628 164.646 101.827 164.858 102.096C165.07 102.358 165.207 102.695 165.27 103.106H163.997C163.922 102.925 163.794 102.782 163.613 102.676C163.439 102.57 163.233 102.517 162.996 102.517C162.777 102.517 162.587 102.557 162.425 102.638C162.263 102.713 162.122 102.819 162.004 102.957C161.892 103.088 161.798 103.237 161.723 103.406C161.648 103.574 161.595 103.752 161.564 103.939C161.533 104.12 161.517 104.301 161.517 104.482C161.667 104.276 161.839 104.114 162.032 103.995C162.232 103.877 162.431 103.796 162.631 103.752C162.83 103.702 163.011 103.677 163.174 103.677C163.616 103.677 163.997 103.764 164.315 103.939C164.633 104.114 164.877 104.36 165.045 104.678C165.22 104.99 165.307 105.361 165.307 105.792C165.307 106.253 165.204 106.656 164.998 106.999C164.792 107.342 164.509 107.607 164.147 107.794C163.791 107.981 163.379 108.075 162.912 108.075ZM162.921 106.849C163.146 106.849 163.333 106.802 163.482 106.709C163.638 106.615 163.757 106.494 163.838 106.344C163.919 106.188 163.96 106.023 163.96 105.848C163.96 105.661 163.919 105.492 163.838 105.343C163.757 105.187 163.641 105.062 163.492 104.968C163.342 104.875 163.158 104.828 162.94 104.828C162.734 104.828 162.544 104.875 162.369 104.968C162.2 105.056 162.069 105.177 161.976 105.333C161.882 105.483 161.836 105.655 161.836 105.848C161.836 106.023 161.879 106.188 161.967 106.344C162.054 106.494 162.179 106.615 162.341 106.709C162.503 106.802 162.696 106.849 162.921 106.849ZM168.779 108.075C168.292 108.075 167.88 107.988 167.544 107.813C167.207 107.638 166.932 107.398 166.72 107.092C166.508 106.78 166.355 106.422 166.262 106.016C166.168 105.605 166.121 105.168 166.121 104.706C166.121 104.232 166.168 103.789 166.262 103.378C166.361 102.966 166.517 102.604 166.729 102.292C166.948 101.98 167.225 101.737 167.562 101.562C167.905 101.388 168.317 101.3 168.797 101.3C169.296 101.3 169.714 101.391 170.051 101.572C170.394 101.753 170.669 102.005 170.875 102.33C171.087 102.648 171.236 103.01 171.324 103.415C171.417 103.821 171.464 104.245 171.464 104.688C171.464 105.143 171.417 105.573 171.324 105.979C171.23 106.384 171.08 106.746 170.875 107.064C170.669 107.376 170.394 107.623 170.051 107.804C169.708 107.984 169.284 108.075 168.779 108.075ZM168.779 106.84C169.084 106.84 169.324 106.771 169.499 106.634C169.68 106.49 169.814 106.306 169.902 106.082C169.995 105.857 170.054 105.623 170.079 105.38C170.11 105.131 170.126 104.9 170.126 104.688C170.126 104.488 170.11 104.267 170.079 104.023C170.054 103.774 169.998 103.54 169.911 103.321C169.824 103.097 169.693 102.913 169.518 102.769C169.343 102.626 169.106 102.554 168.807 102.554C168.507 102.554 168.267 102.626 168.086 102.769C167.905 102.907 167.768 103.088 167.675 103.312C167.587 103.537 167.528 103.771 167.497 104.014C167.466 104.257 167.45 104.482 167.45 104.688C167.45 104.893 167.462 105.121 167.487 105.371C167.519 105.62 167.578 105.857 167.665 106.082C167.753 106.306 167.884 106.49 168.058 106.634C168.239 106.771 168.479 106.84 168.779 106.84Z" fill="white"/>
<path d="M98.5622 48.7256V42.2505H96.828V40.9031C97.169 40.8948 97.4768 40.8657 97.7512 40.8158C98.0257 40.7576 98.2711 40.6578 98.4873 40.5164C98.7036 40.3666 98.8907 40.1587 99.0487 39.8926H100.346V48.7256H98.5622ZM105.407 48.8254C104.991 48.8254 104.588 48.7796 104.197 48.6882C103.806 48.5883 103.448 48.4345 103.124 48.2265C102.808 48.0103 102.554 47.7275 102.363 47.3782C102.18 47.0288 102.089 46.6088 102.089 46.1181C102.089 45.7937 102.134 45.5026 102.226 45.2448C102.326 44.9786 102.467 44.7457 102.65 44.5461C102.841 44.3382 103.07 44.1718 103.336 44.0471C103.112 43.9057 102.929 43.7393 102.787 43.548C102.646 43.3484 102.542 43.1322 102.475 42.8993C102.409 42.6664 102.375 42.4293 102.375 42.1881C102.375 41.7473 102.463 41.3772 102.637 41.0778C102.812 40.77 103.045 40.5247 103.336 40.3417C103.627 40.1504 103.956 40.0132 104.322 39.93C104.688 39.8385 105.058 39.7927 105.432 39.7927C105.815 39.7927 106.185 39.8385 106.542 39.93C106.9 40.0132 107.224 40.1546 107.516 40.3542C107.807 40.5455 108.04 40.7991 108.214 41.1152C108.389 41.4229 108.476 41.7972 108.476 42.238C108.476 42.4626 108.439 42.6913 108.364 42.9242C108.297 43.1488 108.189 43.3567 108.04 43.548C107.898 43.7393 107.715 43.9015 107.491 44.0346C107.757 44.151 107.986 44.3091 108.177 44.5087C108.368 44.7083 108.514 44.9453 108.613 45.2198C108.713 45.4943 108.763 45.802 108.763 46.143C108.763 46.6338 108.668 47.0496 108.476 47.3907C108.285 47.7317 108.027 48.0103 107.703 48.2265C107.378 48.4345 107.017 48.5883 106.617 48.6882C106.226 48.7796 105.823 48.8254 105.407 48.8254ZM105.42 47.216C105.603 47.216 105.786 47.1952 105.969 47.1536C106.152 47.112 106.318 47.0455 106.468 46.954C106.617 46.8542 106.734 46.7336 106.817 46.5922C106.908 46.4425 106.954 46.2595 106.954 46.0432C106.954 45.7771 106.888 45.5608 106.755 45.3945C106.621 45.2198 106.438 45.0909 106.206 45.0077C105.981 44.9162 105.719 44.8705 105.42 44.8705C105.129 44.8705 104.862 44.9162 104.621 45.0077C104.388 45.0909 104.205 45.2198 104.072 45.3945C103.939 45.5608 103.873 45.7771 103.873 46.0432C103.873 46.2595 103.918 46.4425 104.01 46.5922C104.101 46.7336 104.218 46.8542 104.359 46.954C104.509 47.0455 104.675 47.112 104.858 47.1536C105.041 47.1952 105.228 47.216 105.42 47.216ZM105.432 43.5106C105.698 43.5106 105.923 43.469 106.106 43.3858C106.297 43.2944 106.443 43.1696 106.542 43.0116C106.651 42.8452 106.705 42.6622 106.705 42.4626C106.705 42.2131 106.651 42.0093 106.542 41.8513C106.434 41.6849 106.28 41.5602 106.081 41.477C105.89 41.3855 105.661 41.3398 105.395 41.3398C105.137 41.3398 104.912 41.3855 104.721 41.477C104.538 41.5602 104.392 41.6808 104.284 41.8388C104.184 41.9968 104.135 42.1881 104.135 42.4127C104.135 42.6373 104.189 42.8327 104.297 42.9991C104.405 43.1654 104.555 43.2944 104.746 43.3858C104.946 43.469 105.174 43.5106 105.432 43.5106ZM113.429 48.8254C112.78 48.8254 112.232 48.709 111.782 48.4761C111.333 48.2432 110.967 47.923 110.684 47.5154C110.402 47.0995 110.198 46.6213 110.073 46.0807C109.948 45.5317 109.886 44.9495 109.886 44.334C109.886 43.7019 109.948 43.1114 110.073 42.5624C110.206 42.0135 110.414 41.5311 110.697 41.1152C110.988 40.6993 111.358 40.375 111.807 40.1421C112.265 39.9092 112.814 39.7927 113.454 39.7927C114.12 39.7927 114.677 39.9133 115.126 40.1546C115.583 40.3958 115.949 40.7326 116.224 41.1651C116.507 41.5893 116.706 42.0717 116.823 42.6123C116.947 43.153 117.01 43.7185 117.01 44.3091C117.01 44.9162 116.947 45.4901 116.823 46.0308C116.698 46.5714 116.498 47.0538 116.224 47.478C115.949 47.8939 115.583 48.2224 115.126 48.4636C114.669 48.7048 114.103 48.8254 113.429 48.8254ZM113.429 47.1786C113.837 47.1786 114.157 47.0871 114.39 46.9041C114.631 46.7128 114.81 46.4674 114.926 46.168C115.051 45.8686 115.13 45.5567 115.163 45.2323C115.205 44.8996 115.226 44.5919 115.226 44.3091C115.226 44.0429 115.205 43.7476 115.163 43.4233C115.13 43.0906 115.055 42.7787 114.939 42.4876C114.822 42.1881 114.648 41.9428 114.415 41.7515C114.182 41.5602 113.866 41.4645 113.467 41.4645C113.067 41.4645 112.747 41.5602 112.506 41.7515C112.265 41.9345 112.082 42.1757 111.957 42.4751C111.841 42.7745 111.762 43.0864 111.72 43.4108C111.678 43.7352 111.658 44.0346 111.658 44.3091C111.658 44.5835 111.674 44.8871 111.708 45.2198C111.749 45.5525 111.828 45.8686 111.945 46.168C112.061 46.4674 112.236 46.7128 112.469 46.9041C112.71 47.0871 113.03 47.1786 113.429 47.1786Z" fill="white"/>
<path d="M57.2574 69.3151C56.8769 69.3151 56.5245 69.2527 56.2001 69.128C55.8757 68.997 55.6012 68.7973 55.3767 68.5291C55.1583 68.2609 55.018 67.924 54.9556 67.5185H56.2656C56.3342 67.7057 56.4683 67.8492 56.6679 67.949C56.8676 68.0425 57.0797 68.0893 57.3042 68.0893C57.56 68.0893 57.7752 68.0394 57.9499 67.9396C58.1308 67.8336 58.2742 67.6963 58.3803 67.5279C58.4863 67.3532 58.5643 67.163 58.6142 66.9571C58.6641 66.745 58.6922 66.5298 58.6984 66.3115C58.6984 66.2865 58.6984 66.2616 58.6984 66.2366C58.6984 66.2054 58.6984 66.1774 58.6984 66.1524C58.5612 66.352 58.3959 66.508 58.2025 66.6203C58.0091 66.7326 57.8095 66.8105 57.6036 66.8542C57.3978 66.8979 57.2013 66.9197 57.0142 66.9197C56.6212 66.9197 56.2656 66.8386 55.9475 66.6764C55.6293 66.508 55.3767 66.2678 55.1895 65.9559C55.0086 65.644 54.9182 65.2666 54.9182 64.8237C54.9182 64.3309 55.0305 63.9161 55.255 63.5792C55.4796 63.2361 55.7759 62.9773 56.144 62.8026C56.5182 62.6279 56.9268 62.5406 57.3697 62.5406C57.8563 62.5406 58.2649 62.6373 58.5955 62.8307C58.9261 63.0241 59.1881 63.286 59.3815 63.6167C59.5749 63.9473 59.7121 64.3153 59.7932 64.7208C59.8805 65.1263 59.9242 65.5411 59.9242 65.9653C59.9242 66.4269 59.8743 66.8604 59.7745 67.2659C59.6809 67.6651 59.5281 68.0207 59.316 68.3326C59.1101 68.6383 58.8357 68.8784 58.4926 69.0531C58.1557 69.2278 57.744 69.3151 57.2574 69.3151ZM57.3136 65.7968C57.5569 65.7968 57.7565 65.7469 57.9124 65.6471C58.0746 65.5473 58.1963 65.4226 58.2774 65.2729C58.3647 65.1169 58.4084 64.9547 58.4084 64.7863C58.4084 64.5742 58.3584 64.3933 58.2586 64.2436C58.1651 64.0876 58.0372 63.9691 57.875 63.888C57.7191 63.8007 57.5381 63.757 57.3323 63.757C57.1077 63.757 56.9143 63.8038 56.7522 63.8974C56.59 63.9909 56.4652 64.1157 56.3779 64.2717C56.2905 64.4276 56.2469 64.596 56.2469 64.7769C56.2469 65.0639 56.3373 65.3072 56.5182 65.5068C56.7054 65.7002 56.9705 65.7968 57.3136 65.7968ZM63.4152 69.3151C62.9287 69.3151 62.517 69.2278 62.1801 69.0531C61.8433 68.8784 61.5688 68.6383 61.3567 68.3326C61.1446 68.0207 60.9918 67.662 60.8982 67.2565C60.8046 66.8448 60.7578 66.4082 60.7578 65.9466C60.7578 65.4725 60.8046 65.0296 60.8982 64.6179C60.998 64.2062 61.154 63.8443 61.366 63.5324C61.5844 63.2205 61.862 62.9773 62.1988 62.8026C62.5419 62.6279 62.9536 62.5406 63.434 62.5406C63.933 62.5406 64.3509 62.6311 64.6878 62.812C65.0309 62.9929 65.3054 63.2455 65.5112 63.5699C65.7233 63.888 65.873 64.2498 65.9603 64.6553C66.0539 65.0608 66.1007 65.4849 66.1007 65.9278C66.1007 66.3832 66.0539 66.8136 65.9603 67.2191C65.8668 67.6246 65.7171 67.9864 65.5112 68.3045C65.3054 68.6164 65.0309 68.8628 64.6878 69.0437C64.3447 69.2246 63.9205 69.3151 63.4152 69.3151ZM63.4152 68.08C63.7209 68.08 63.9611 68.0113 64.1357 67.8741C64.3166 67.7306 64.4507 67.5466 64.5381 67.322C64.6317 67.0975 64.6909 66.8635 64.7159 66.6203C64.7471 66.3707 64.7626 66.1399 64.7626 65.9278C64.7626 65.7282 64.7471 65.5068 64.7159 65.2635C64.6909 65.014 64.6348 64.7801 64.5474 64.5617C64.4601 64.3372 64.3291 64.1531 64.1544 64.0097C63.9798 63.8662 63.7427 63.7944 63.4433 63.7944C63.1439 63.7944 62.9037 63.8662 62.7228 64.0097C62.5419 64.1469 62.4047 64.3278 62.3111 64.5524C62.2238 64.7769 62.1645 65.0109 62.1333 65.2541C62.1021 65.4974 62.0865 65.722 62.0865 65.9278C62.0865 66.1337 62.099 66.3614 62.124 66.6109C62.1552 66.8604 62.2144 67.0975 62.3018 67.322C62.3891 67.5466 62.5201 67.7306 62.6947 67.8741C62.8756 68.0113 63.1158 68.08 63.4152 68.08Z" fill="white"/>
<path d="M144.373 67.9072V66.8031L146.207 65.2779C146.338 65.1656 146.487 65.0409 146.656 64.9036C146.83 64.7601 146.996 64.6073 147.152 64.4451C147.314 64.2829 147.445 64.1114 147.545 63.9305C147.651 63.7496 147.704 63.5624 147.704 63.3691C147.704 63.1008 147.619 62.8825 147.451 62.7141C147.289 62.5457 147.049 62.4614 146.731 62.4614C146.431 62.4614 146.194 62.5301 146.019 62.6673C145.851 62.7983 145.745 62.9667 145.701 63.1726H144.41C144.447 62.7297 144.578 62.3647 144.803 62.0778C145.034 61.7846 145.324 61.5663 145.673 61.4228C146.023 61.2793 146.391 61.2076 146.777 61.2076C147.195 61.2076 147.576 61.2856 147.919 61.4415C148.262 61.5975 148.533 61.8252 148.733 62.1246C148.933 62.4178 149.032 62.7827 149.032 63.2194C149.032 63.5936 148.961 63.9336 148.817 64.2393C148.68 64.5387 148.49 64.8194 148.246 65.0814C148.003 65.3372 147.729 65.5836 147.423 65.8206L146.375 66.6721H149.023V67.9072H144.373ZM150.057 67.9072L152.584 62.5269H149.421V61.2825H154.109V62.2837L151.545 67.9072H150.057ZM157.288 67.9821C156.801 67.9821 156.389 67.8948 156.053 67.7201C155.716 67.5454 155.441 67.3053 155.229 66.9996C155.017 66.6877 154.864 66.329 154.771 65.9235C154.677 65.5118 154.63 65.0752 154.63 64.6136C154.63 64.1395 154.677 63.6966 154.771 63.2849C154.871 62.8731 155.026 62.5113 155.239 62.1994C155.457 61.8875 155.735 61.6443 156.071 61.4696C156.414 61.2949 156.826 61.2076 157.306 61.2076C157.806 61.2076 158.223 61.298 158.56 61.4789C158.903 61.6599 159.178 61.9125 159.384 62.2369C159.596 62.555 159.746 62.9168 159.833 63.3223C159.926 63.7278 159.973 64.1519 159.973 64.5948C159.973 65.0502 159.926 65.4806 159.833 65.8861C159.739 66.2916 159.59 66.6534 159.384 66.9715C159.178 67.2834 158.903 67.5298 158.56 67.7107C158.217 67.8916 157.793 67.9821 157.288 67.9821ZM157.288 66.747C157.593 66.747 157.834 66.6783 158.008 66.5411C158.189 66.3976 158.323 66.2136 158.411 65.989C158.504 65.7645 158.563 65.5305 158.588 65.2873C158.62 65.0377 158.635 64.8069 158.635 64.5948C158.635 64.3952 158.62 64.1738 158.588 63.9305C158.563 63.681 158.507 63.447 158.42 63.2287C158.333 63.0041 158.202 62.8201 158.027 62.6766C157.852 62.5332 157.615 62.4614 157.316 62.4614C157.016 62.4614 156.776 62.5332 156.595 62.6766C156.414 62.8139 156.277 62.9948 156.184 63.2194C156.096 63.4439 156.037 63.6779 156.006 63.9211C155.975 64.1644 155.959 64.389 155.959 64.5948C155.959 64.8007 155.972 65.0284 155.997 65.2779C156.028 65.5274 156.087 65.7645 156.174 65.989C156.262 66.2136 156.393 66.3976 156.567 66.5411C156.748 66.6783 156.988 66.747 157.288 66.747Z" fill="white"/>
<mask id="path-8-inside-1_486_14418" fill="white">
<path d="M185.046 121.35C188.887 122.501 192.974 120.355 193.847 116.44C196.298 105.45 196.554 94.0767 194.575 82.9499C192.174 69.4455 186.548 56.6852 178.154 45.7055C169.761 34.7257 158.836 25.8362 146.268 19.759C133.7 13.6817 119.843 10.588 105.823 10.7292C91.8023 10.8704 78.0135 14.2425 65.5764 20.5717C53.1392 26.9008 42.4045 36.0084 34.2442 47.1548C26.0838 58.3013 20.7278 71.1722 18.6114 84.7221C16.8671 95.8888 17.3636 107.257 20.0469 118.198C21.0017 122.091 25.1294 124.151 28.9449 122.923L59.3809 113.125C63.2699 111.873 65.3124 107.678 64.7326 103.634C64.1628 99.659 64.1843 95.6115 64.8081 91.6181C65.8151 85.1709 68.3635 79.0468 72.2463 73.7432C76.1291 68.4396 81.2368 64.106 87.1545 61.0946C93.0723 58.0831 99.6332 56.4786 106.304 56.4114C112.975 56.3442 119.569 57.8162 125.549 60.7079C131.529 63.5995 136.727 67.8293 140.72 73.0535C144.714 78.2778 147.391 84.3493 148.534 90.7749C149.242 94.7562 149.348 98.8039 148.862 102.79C148.367 106.844 150.494 110.993 154.406 112.165L185.046 121.35Z"/>
</mask>
<path d="M185.046 121.35C188.887 122.501 192.974 120.355 193.847 116.44C196.298 105.45 196.554 94.0767 194.575 82.9499C192.174 69.4455 186.548 56.6852 178.154 45.7055C169.761 34.7257 158.836 25.8362 146.268 19.759C133.7 13.6817 119.843 10.588 105.823 10.7292C91.8023 10.8704 78.0135 14.2425 65.5764 20.5717C53.1392 26.9008 42.4045 36.0084 34.2442 47.1548C26.0838 58.3013 20.7278 71.1722 18.6114 84.7221C16.8671 95.8888 17.3636 107.257 20.0469 118.198C21.0017 122.091 25.1294 124.151 28.9449 122.923L59.3809 113.125C63.2699 111.873 65.3124 107.678 64.7326 103.634C64.1628 99.659 64.1843 95.6115 64.8081 91.6181C65.8151 85.1709 68.3635 79.0468 72.2463 73.7432C76.1291 68.4396 81.2368 64.106 87.1545 61.0946C93.0723 58.0831 99.6332 56.4786 106.304 56.4114C112.975 56.3442 119.569 57.8162 125.549 60.7079C131.529 63.5995 136.727 67.8293 140.72 73.0535C144.714 78.2778 147.391 84.3493 148.534 90.7749C149.242 94.7562 149.348 98.8039 148.862 102.79C148.367 106.844 150.494 110.993 154.406 112.165L185.046 121.35Z" stroke="black" stroke-opacity="0.2" stroke-width="2.66455" style="mix-blend-mode:overlay" mask="url(#path-8-inside-1_486_14418)"/>
<g filter="url(#filter0_d_486_14418)">
<g clip-path="url(#paint2_angular_486_14418_clip_path)" data-figma-skip-parse="true"><g transform="matrix(0 -0.0680377 0.0680465 0 106.741 97.8769)"><foreignObject x="-1359.1" y="-1359.1" width="2718.21" height="2718.21"><div xmlns="http://www.w3.org/1999/xhtml" style="background:conic-gradient(from 90deg,rgba(49, 131, 240, 1) 0deg,rgba(89, 153, 246, 1) 18deg,rgba(113, 185, 255, 1) 54deg,rgba(125, 193, 255, 1) 90deg,rgba(137, 196, 255, 1) 105.715deg,rgba(0, 67, 214, 1) 270deg,rgba(5, 111, 236, 1) 306deg,rgba(10, 109, 235, 1) 342deg,rgba(49, 131, 240, 1) 360deg);height:100%;width:100%;opacity:1"></div></foreignObject></g></g><path d="M189.246 124.848C192.017 125.754 195.019 124.268 195.797 121.458C199.146 109.352 199.884 96.6766 197.942 84.2413C195.729 70.0734 190.099 56.6247 181.518 45.0082C172.937 33.3917 161.653 23.9413 148.597 17.4389C135.542 10.9366 121.092 7.56931 106.442 7.61571C91.7923 7.6621 77.3646 11.1208 64.3526 17.7057C51.3406 24.2906 40.1184 33.8123 31.6147 45.4829C23.111 57.1536 17.5703 70.6376 15.451 84.8192C13.6016 97.1947 14.4041 109.791 17.7834 121.812C18.6052 124.736 21.7422 126.263 24.6226 125.301L29.8822 123.545C30.8216 123.231 31.3209 122.21 31.0167 121.268C27.4095 110.09 26.4318 98.2513 28.1673 86.6381C29.9914 74.4319 34.7603 62.8262 42.0795 52.7812C49.3986 42.7363 59.0576 34.5409 70.2571 28.8733C81.4565 23.2056 93.8746 20.2287 106.484 20.1888C119.093 20.1488 131.53 23.0471 142.767 28.6437C154.004 34.2402 163.716 42.3742 171.102 52.3726C178.487 62.371 183.333 73.9463 185.238 86.1407C187.05 97.7428 186.151 109.588 182.618 120.788C182.32 121.732 182.826 122.75 183.767 123.057L189.246 124.848Z" data-figma-gradient-fill="{&#34;type&#34;:&#34;GRADIENT_ANGULAR&#34;,&#34;stops&#34;:[{&#34;color&#34;:{&#34;r&#34;:0.35072731971740723,&#34;g&#34;:0.60117930173873901,&#34;b&#34;:0.96499401330947876,&#34;a&#34;:1.0},&#34;position&#34;:0.050000000745058060},{&#34;color&#34;:{&#34;r&#34;:0.44332182407379150,&#34;g&#34;:0.72867786884307861,&#34;b&#34;:1.0,&#34;a&#34;:1.0},&#34;position&#34;:0.15000000596046448},{&#34;color&#34;:{&#34;r&#34;:0.49183067679405212,&#34;g&#34;:0.75996023416519165,&#34;b&#34;:1.0,&#34;a&#34;:1.0},&#34;position&#34;:0.250},{&#34;color&#34;:{&#34;r&#34;:0.53864932060241699,&#34;g&#34;:0.77017050981521606,&#34;b&#34;:1.0,&#34;a&#34;:1.0},&#34;position&#34;:0.29365226626396179},{&#34;color&#34;:{&#34;r&#34;:0.0,&#34;g&#34;:0.26274511218070984,&#34;b&#34;:0.83921569585800171,&#34;a&#34;:1.0},&#34;position&#34;:0.750},{&#34;color&#34;:{&#34;r&#34;:0.019607843831181526,&#34;g&#34;:0.43529412150382996,&#34;b&#34;:0.92549020051956177,&#34;a&#34;:1.0},&#34;position&#34;:0.85000002384185791},{&#34;color&#34;:{&#34;r&#34;:0.039215687662363052,&#34;g&#34;:0.42745098471641541,&#34;b&#34;:0.92156863212585449,&#34;a&#34;:1.0},&#34;position&#34;:0.94999998807907104}],&#34;stopsVar&#34;:[{&#34;color&#34;:{&#34;r&#34;:0.35072731971740723,&#34;g&#34;:0.60117930173873901,&#34;b&#34;:0.96499401330947876,&#34;a&#34;:1.0},&#34;position&#34;:0.050000000745058060},{&#34;color&#34;:{&#34;r&#34;:0.44332182407379150,&#34;g&#34;:0.72867786884307861,&#34;b&#34;:1.0,&#34;a&#34;:1.0},&#34;position&#34;:0.15000000596046448},{&#34;color&#34;:{&#34;r&#34;:0.49183067679405212,&#34;g&#34;:0.75996023416519165,&#34;b&#34;:1.0,&#34;a&#34;:1.0},&#34;position&#34;:0.250},{&#34;color&#34;:{&#34;r&#34;:0.53864932060241699,&#34;g&#34;:0.77017050981521606,&#34;b&#34;:1.0,&#34;a&#34;:1.0},&#34;position&#34;:0.29365226626396179},{&#34;color&#34;:{&#34;r&#34;:0.0,&#34;g&#34;:0.26274511218070984,&#34;b&#34;:0.83921569585800171,&#34;a&#34;:1.0},&#34;position&#34;:0.750},{&#34;color&#34;:{&#34;r&#34;:0.019607843831181526,&#34;g&#34;:0.43529412150382996,&#34;b&#34;:0.92549020051956177,&#34;a&#34;:1.0},&#34;position&#34;:0.85000002384185791},{&#34;color&#34;:{&#34;r&#34;:0.039215687662363052,&#34;g&#34;:0.42745098471641541,&#34;b&#34;:0.92156863212585449,&#34;a&#34;:1.0},&#34;position&#34;:0.94999998807907104}],&#34;transform&#34;:{&#34;m00&#34;:-4.0506050662074411e-13,&#34;m01&#34;:136.09298706054688,&#34;m02&#34;:38.694087982177734,&#34;m10&#34;:-136.07540893554688,&#34;m11&#34;:8.3764822877453737e-14,&#34;m12&#34;:165.91462707519531},&#34;opacity&#34;:1.0,&#34;blendMode&#34;:&#34;NORMAL&#34;,&#34;visible&#34;:true}"/>
</g>
<g opacity="0.94" filter="url(#filter1_f_486_14418)">
<g clip-path="url(#paint3_angular_486_14418_clip_path)" data-figma-skip-parse="true"><g transform="matrix(0 -0.0597527 0.0594486 0 106.185 97.9882)"><foreignObject x="-1359.57" y="-1359.57" width="2719.15" height="2719.15"><div xmlns="http://www.w3.org/1999/xhtml" style="background:conic-gradient(from 90deg,rgba(142, 155, 131, 0.5) 0deg,rgba(252, 163, 22, 1) 18deg,rgba(255, 149, 10, 1) 54deg,rgba(255, 104, 11, 1) 90deg,rgba(0, 82, 221, 1) 270deg,rgba(9, 121, 245, 1) 306deg,rgba(32, 147, 241, 0) 342deg,rgba(142, 155, 131, 0.5) 360deg);height:100%;width:100%;opacity:1"></div></foreignObject></g></g><path d="M182.567 121.183C182.917 121.29 183.288 121.094 183.395 120.743C187.455 107.421 187.88 93.2778 184.622 79.7359C181.312 65.9796 174.322 53.3439 164.377 43.1381C154.431 32.9324 141.891 25.528 128.057 21.692C114.436 17.9153 100.047 17.7331 86.3385 21.1583C85.9836 21.2469 85.7719 21.6098 85.8663 21.9632C85.9597 22.3125 86.3173 22.5208 86.668 22.4332C100.149 19.065 114.299 19.2441 127.694 22.9582C141.299 26.7304 153.63 34.012 163.411 44.0484C173.192 54.0848 180.065 66.5108 183.32 80.0388C186.522 93.3484 186.106 107.248 182.121 120.343C182.013 120.698 182.211 121.076 182.567 121.183Z" data-figma-gradient-fill="{&#34;type&#34;:&#34;GRADIENT_ANGULAR&#34;,&#34;stops&#34;:[{&#34;color&#34;:{&#34;r&#34;:0.98823529481887817,&#34;g&#34;:0.63921570777893066,&#34;b&#34;:0.086274512112140656,&#34;a&#34;:1.0},&#34;position&#34;:0.050000000745058060},{&#34;color&#34;:{&#34;r&#34;:1.0,&#34;g&#34;:0.58431375026702881,&#34;b&#34;:0.039215687662363052,&#34;a&#34;:1.0},&#34;position&#34;:0.15000000596046448},{&#34;color&#34;:{&#34;r&#34;:1.0,&#34;g&#34;:0.40784314274787903,&#34;b&#34;:0.043137256056070328,&#34;a&#34;:1.0},&#34;position&#34;:0.250},{&#34;color&#34;:{&#34;r&#34;:0.0,&#34;g&#34;:0.32156863808631897,&#34;b&#34;:0.86666667461395264,&#34;a&#34;:1.0},&#34;position&#34;:0.750},{&#34;color&#34;:{&#34;r&#34;:0.035294119268655777,&#34;g&#34;:0.47450980544090271,&#34;b&#34;:0.96078431606292725,&#34;a&#34;:1.0},&#34;position&#34;:0.85000002384185791},{&#34;color&#34;:{&#34;r&#34;:0.12549020349979401,&#34;g&#34;:0.57647061347961426,&#34;b&#34;:0.94509804248809814,&#34;a&#34;:0.0},&#34;position&#34;:0.94999998807907104}],&#34;stopsVar&#34;:[{&#34;color&#34;:{&#34;r&#34;:0.98823529481887817,&#34;g&#34;:0.63921570777893066,&#34;b&#34;:0.086274512112140656,&#34;a&#34;:1.0},&#34;position&#34;:0.050000000745058060},{&#34;color&#34;:{&#34;r&#34;:1.0,&#34;g&#34;:0.58431375026702881,&#34;b&#34;:0.039215687662363052,&#34;a&#34;:1.0},&#34;position&#34;:0.15000000596046448},{&#34;color&#34;:{&#34;r&#34;:1.0,&#34;g&#34;:0.40784314274787903,&#34;b&#34;:0.043137256056070328,&#34;a&#34;:1.0},&#34;position&#34;:0.250},{&#34;color&#34;:{&#34;r&#34;:0.0,&#34;g&#34;:0.32156863808631897,&#34;b&#34;:0.86666667461395264,&#34;a&#34;:1.0},&#34;position&#34;:0.750},{&#34;color&#34;:{&#34;r&#34;:0.035294119268655777,&#34;g&#34;:0.47450980544090271,&#34;b&#34;:0.96078431606292725,&#34;a&#34;:1.0},&#34;position&#34;:0.85000002384185791},{&#34;color&#34;:{&#34;r&#34;:0.12549020349979401,&#34;g&#34;:0.57647061347961426,&#34;b&#34;:0.94509804248809814,&#34;a&#34;:0.0},&#34;position&#34;:0.94999998807907104}],&#34;transform&#34;:{&#34;m00&#34;:-3.5387960465628476e-13,&#34;m01&#34;:118.89712524414062,&#34;m02&#34;:46.736167907714844,&#34;m10&#34;:-119.50534057617188,&#34;m11&#34;:7.3564675943764424e-14,&#34;m12&#34;:157.74085998535156},&#34;opacity&#34;:1.0,&#34;blendMode&#34;:&#34;NORMAL&#34;,&#34;visible&#34;:true}"/>
</g>
<g filter="url(#filter2_d_486_14418)">
<g clip-path="url(#paint4_angular_486_14418_clip_path)" data-figma-skip-parse="true"><g transform="matrix(0 -0.0680377 0.0680465 0 106.741 97.8769)"><foreignObject x="-1359.1" y="-1359.1" width="2718.21" height="2718.21"><div xmlns="http://www.w3.org/1999/xhtml" style="background:conic-gradient(from 90deg,rgba(103, 200, 255, 1) 0deg,rgba(67, 182, 255, 1) 27.7546deg,rgba(37, 166, 254, 1) 54deg,rgba(0, 114, 255, 1) 90deg,rgba(0, 119, 254, 1) 251.243deg,rgba(25, 160, 253, 1) 270deg,rgba(122, 210, 255, 1) 306deg,rgba(127, 213, 255, 1) 342deg,rgba(103, 200, 255, 1) 360deg);height:100%;width:100%;opacity:1"></div></foreignObject></g></g><path d="M189.038 124.78C191.925 125.724 195.052 124.176 195.855 121.247C199.154 109.205 199.873 96.6043 197.942 84.2413C195.729 70.0734 190.099 56.6247 181.518 45.0082C172.937 33.3917 161.653 23.9413 148.597 17.4389C135.542 10.9366 121.092 7.56931 106.442 7.61571C91.7923 7.6621 77.3646 11.1208 64.3526 17.7057C51.3406 24.2906 40.1184 33.8123 31.6147 45.4829C23.111 57.1536 17.5703 70.6376 15.451 84.8192C13.5908 97.2671 14.4135 109.938 17.843 122.023C18.6389 124.828 21.6496 126.294 24.4148 125.371L26.8744 124.549C27.8137 124.236 28.3131 123.215 28.0081 122.272C24.2384 110.628 23.214 98.2901 25.0225 86.1883C26.9196 73.4936 31.8794 61.4233 39.4915 50.9763C47.1036 40.5293 57.1491 32.006 68.7969 26.1115C80.4446 20.217 93.3596 17.1209 106.473 17.0794C119.587 17.0379 132.522 20.0521 144.209 25.8727C155.895 31.6933 165.997 40.1528 173.678 50.5514C181.359 60.9499 186.399 72.9885 188.38 85.671C190.268 97.7611 189.325 110.105 185.633 121.773C185.334 122.718 185.84 123.735 186.781 124.043L189.038 124.78Z" data-figma-gradient-fill="{&#34;type&#34;:&#34;GRADIENT_ANGULAR&#34;,&#34;stops&#34;:[{&#34;color&#34;:{&#34;r&#34;:0.26274511218070984,&#34;g&#34;:0.71372550725936890,&#34;b&#34;:1.0,&#34;a&#34;:1.0},&#34;position&#34;:0.077096104621887207},{&#34;color&#34;:{&#34;r&#34;:0.14509804546833038,&#34;g&#34;:0.65098041296005249,&#34;b&#34;:0.99607843160629272,&#34;a&#34;:1.0},&#34;position&#34;:0.15000000596046448},{&#34;color&#34;:{&#34;r&#34;:0.0,&#34;g&#34;:0.44705882668495178,&#34;b&#34;:1.0,&#34;a&#34;:1.0},&#34;position&#34;:0.250},{&#34;color&#34;:{&#34;r&#34;:0.0,&#34;g&#34;:0.46666666865348816,&#34;b&#34;:0.99607843160629272,&#34;a&#34;:1.0},&#34;position&#34;:0.69789785146713257},{&#34;color&#34;:{&#34;r&#34;:0.098039217293262482,&#34;g&#34;:0.62745100259780884,&#34;b&#34;:0.99215686321258545,&#34;a&#34;:1.0},&#34;position&#34;:0.750},{&#34;color&#34;:{&#34;r&#34;:0.47843137383460999,&#34;g&#34;:0.82352942228317261,&#34;b&#34;:1.0,&#34;a&#34;:1.0},&#34;position&#34;:0.85000002384185791},{&#34;color&#34;:{&#34;r&#34;:0.49803921580314636,&#34;g&#34;:0.83529412746429443,&#34;b&#34;:1.0,&#34;a&#34;:1.0},&#34;position&#34;:0.94999998807907104}],&#34;stopsVar&#34;:[{&#34;color&#34;:{&#34;r&#34;:0.26274511218070984,&#34;g&#34;:0.71372550725936890,&#34;b&#34;:1.0,&#34;a&#34;:1.0},&#34;position&#34;:0.077096104621887207},{&#34;color&#34;:{&#34;r&#34;:0.14509804546833038,&#34;g&#34;:0.65098041296005249,&#34;b&#34;:0.99607843160629272,&#34;a&#34;:1.0},&#34;position&#34;:0.15000000596046448},{&#34;color&#34;:{&#34;r&#34;:0.0,&#34;g&#34;:0.44705882668495178,&#34;b&#34;:1.0,&#34;a&#34;:1.0},&#34;position&#34;:0.250},{&#34;color&#34;:{&#34;r&#34;:0.0,&#34;g&#34;:0.46666666865348816,&#34;b&#34;:0.99607843160629272,&#34;a&#34;:1.0},&#34;position&#34;:0.69789785146713257},{&#34;color&#34;:{&#34;r&#34;:0.098039217293262482,&#34;g&#34;:0.62745100259780884,&#34;b&#34;:0.99215686321258545,&#34;a&#34;:1.0},&#34;position&#34;:0.750},{&#34;color&#34;:{&#34;r&#34;:0.47843137383460999,&#34;g&#34;:0.82352942228317261,&#34;b&#34;:1.0,&#34;a&#34;:1.0},&#34;position&#34;:0.85000002384185791},{&#34;color&#34;:{&#34;r&#34;:0.49803921580314636,&#34;g&#34;:0.83529412746429443,&#34;b&#34;:1.0,&#34;a&#34;:1.0},&#34;position&#34;:0.94999998807907104}],&#34;transform&#34;:{&#34;m00&#34;:-4.0506050662074411e-13,&#34;m01&#34;:136.09298706054688,&#34;m02&#34;:38.694087982177734,&#34;m10&#34;:-136.07540893554688,&#34;m11&#34;:8.3764822877453737e-14,&#34;m12&#34;:165.91462707519531},&#34;opacity&#34;:1.0,&#34;blendMode&#34;:&#34;NORMAL&#34;,&#34;visible&#34;:true}"/>
<path d="M106.442 7.72656C121.075 7.68024 135.508 11.0435 148.548 17.5381C161.588 24.0327 172.859 33.472 181.429 45.0742C189.999 56.6765 195.622 70.1087 197.832 84.2588C199.761 96.6061 199.043 109.191 195.748 121.218C194.963 124.081 191.903 125.6 189.072 124.675L186.815 123.938C185.934 123.649 185.457 122.694 185.738 121.807C189.436 110.122 190.38 97.7612 188.489 85.6543C186.505 72.9541 181.459 60.8982 173.768 50.4854C166.076 40.0725 155.96 31.6018 144.258 25.7734C132.556 19.9452 119.603 16.9272 106.473 16.9688C93.3419 17.0104 80.4102 20.1105 68.7471 26.0127C57.0838 31.915 47.0239 40.4498 39.4014 50.9111C31.779 61.3724 26.8128 73.4595 24.9131 86.1719C23.1021 98.2906 24.1273 110.646 27.9023 122.307C28.1891 123.192 27.7189 124.15 26.8389 124.444L24.3799 125.266C21.6707 126.17 18.7278 124.732 17.9502 121.993C14.5251 109.924 13.7027 97.2681 15.5605 84.8359C17.6772 70.6721 23.2109 57.2041 31.7041 45.5479C40.1973 33.8917 51.406 24.3817 64.4023 17.8047C77.3988 11.2277 91.81 7.7729 106.442 7.72656Z" stroke="#48BFFF" stroke-width="0.222046"/>
</g>
<g filter="url(#filter3_d_486_14418)">
<circle cx="108" cy="98" r="23" fill="url(#paint5_linear_486_14418)"/>
<path d="M108.272 98.0722L146.941 47.2292C146.648 47.2284 146.368 47.347 146.165 47.5575L102.605 92.7256L108.272 98.0722Z" fill="#FFBA10"/>
<path d="M108.273 98.0725L146.941 47.2294L146.98 47.3863C147.024 47.5616 146.994 47.7469 146.898 47.8999L112.11 103.414L108.273 98.0725Z" fill="#F15F0A"/>
<circle cx="107.962" cy="97.7653" r="13.9889" fill="url(#paint6_linear_486_14418)"/>
<circle cx="108.073" cy="97.8749" r="13.6558" stroke="url(#paint7_linear_486_14418)" stroke-width="0.444092"/>
<g filter="url(#filter4_dii_486_14418)">
<circle cx="107.961" cy="97.7648" r="11.3243" fill="url(#paint8_linear_486_14418)"/>
</g>
<g opacity="0.44">
<g filter="url(#filter5_i_486_14418)">
<circle cx="107.851" cy="97.6544" r="10.9913" fill="url(#paint9_linear_486_14418)" style="mix-blend-mode:overlay"/>
</g>
<circle cx="107.851" cy="97.6544" r="10.7692" stroke="url(#paint10_linear_486_14418)" stroke-width="0.444092"/>
</g>
<circle cx="107.74" cy="97.543" r="10.4362" stroke="url(#paint11_linear_486_14418)" stroke-width="0.444092"/>
</g>
<g filter="url(#filter6_d_486_14418)">
<path d="M39.1589 68.0876C38.7809 67.906 38.3269 68.0648 38.1486 68.4443C37.9701 68.8245 38.1387 69.276 38.5208 69.4503L41.4271 70.7761C41.7854 70.9395 42.208 70.7816 42.3753 70.4252C42.543 70.0682 42.3938 69.6416 42.0383 69.4708L39.1589 68.0876Z" fill="white"/>
<path d="M175.656 68.0876C176.034 67.906 176.488 68.0648 176.666 68.4443C176.844 68.8245 176.676 69.276 176.294 69.4503L173.387 70.7761C173.029 70.9395 172.606 70.7816 172.439 70.4252C172.271 70.0682 172.421 69.6416 172.776 69.4708L175.656 68.0876Z" fill="white"/>
<path d="M31.8451 95.7592C31.4266 95.7309 31.0638 96.0471 31.0396 96.466C31.0153 96.8849 31.3393 97.241 31.7584 97.261L34.9508 97.4135C35.3443 97.4323 35.6781 97.1285 35.7009 96.7353C35.7236 96.3419 35.4269 96.0016 35.0338 95.975L31.8451 95.7592Z" fill="white"/>
<path d="M182.969 95.7592C183.388 95.7309 183.751 96.0471 183.775 96.466C183.799 96.8849 183.475 97.241 183.056 97.261L179.864 97.4135C179.47 97.4323 179.136 97.1285 179.114 96.7353C179.091 96.3419 179.388 96.0016 179.781 95.975L182.969 95.7592Z" fill="white"/>
<path d="M58.4321 43.189C58.1606 42.8692 57.6812 42.8294 57.3637 43.1036C57.0456 43.3784 57.0158 43.8598 57.2942 44.1747L59.4074 46.5656C59.6682 46.8608 60.1186 46.8886 60.4167 46.6311C60.7154 46.3731 60.7528 45.9223 60.4973 45.6214L58.4321 43.189Z" fill="white"/>
<path d="M156.382 43.189C156.654 42.8692 157.133 42.8294 157.451 43.1036C157.769 43.3784 157.799 43.8598 157.52 44.1747L155.407 46.5656C155.146 46.8608 154.696 46.8886 154.398 46.6311C154.099 46.3731 154.062 45.9223 154.317 45.6214L156.382 43.189Z" fill="white"/>
<path d="M89.2707 27.4508C89.17 27.0432 88.7579 26.7938 88.3511 26.8983C87.944 27.0028 87.7031 27.4206 87.812 27.8266L88.6379 30.9054C88.74 31.2863 89.1314 31.5119 89.5133 31.4138C89.8956 31.3156 90.1298 30.9287 90.0351 30.5455L89.2707 27.4508Z" fill="white"/>
<path d="M125.544 27.4508C125.644 27.0432 126.057 26.7938 126.463 26.8983C126.87 27.0028 127.111 27.4206 127.002 27.8266L126.177 30.9054C126.074 31.2863 125.683 31.5119 125.301 31.4138C124.919 31.3156 124.685 30.9287 124.779 30.5455L125.544 27.4508Z" fill="white"/>
<path d="M108.815 26.0791C108.831 25.209 108.139 24.4888 107.269 24.4904C106.399 24.4919 105.709 25.2147 105.729 26.0847L105.852 31.5628C105.869 32.3365 106.51 32.9481 107.284 32.9467C108.058 32.9453 108.697 32.3314 108.712 31.5577L108.815 26.0791Z" fill="white"/>
<path d="M35.279 81.3865C34.3334 81.1311 33.3576 81.6896 33.1234 82.6407C32.8891 83.5927 33.4955 84.5411 34.4528 84.7527L37.8324 85.4995C38.7031 85.6919 39.5631 85.1418 39.7763 84.2759C39.9896 83.4092 39.482 82.5221 38.6203 82.2893L35.279 81.3865Z" fill="white"/>
<path d="M179.535 81.3865C180.481 81.1311 181.457 81.6896 181.691 82.6407C181.925 83.5927 181.319 84.5411 180.362 84.7527L177.01 85.4933C176.139 85.6858 175.278 85.1355 175.065 84.2693C174.852 83.4023 175.36 82.5148 176.222 82.2819L179.535 81.3865Z" fill="white"/>
<path d="M48.7181 54.6932C47.9484 54.0876 46.8318 54.2185 46.2431 55.0012C45.6532 55.7854 45.8391 56.8969 46.6377 57.4673L50.8302 60.4619C51.5385 60.9678 52.5212 60.8033 53.0444 60.1077C53.5686 59.4106 53.4525 58.4186 52.767 57.8792L48.7181 54.6932Z" fill="white"/>
<path d="M166.096 54.6932C166.866 54.0876 167.983 54.2185 168.571 55.0012C169.161 55.7854 168.975 56.8969 168.177 57.4673L163.984 60.4619C163.276 60.9678 162.293 60.8033 161.77 60.1077C161.246 59.4106 161.362 58.4186 162.047 57.8792L166.096 54.6932Z" fill="white"/>
<path d="M73.3295 34.4753C72.882 33.6033 71.8116 33.2568 70.9497 33.7234C70.0863 34.1908 69.7921 35.2791 70.2805 36.1308L71.82 38.8155C72.2661 39.5934 73.2571 39.8613 74.0458 39.4343C74.8357 39.0066 75.1528 38.0279 74.7426 37.2286L73.3295 34.4753Z" fill="white"/>
<path d="M141.485 34.4753C141.932 33.6033 143.003 33.2568 143.865 33.7234C144.728 34.1908 145.022 35.2791 144.534 36.1308L142.812 39.1332C142.368 39.9072 141.382 40.1737 140.598 39.7489C139.812 39.3234 139.497 38.3497 139.905 37.5545L141.485 34.4753Z" fill="white"/>
<path d="M33.0095 107.799C32.0336 107.89 31.314 108.755 31.4278 109.729C31.5415 110.702 32.4405 111.378 33.4107 111.242L38.5189 110.526C39.3815 110.405 39.9808 109.608 39.8797 108.743C39.7787 107.878 39.0123 107.24 38.1454 107.321L33.0095 107.799Z" fill="white"/>
<path d="M181.805 107.799C182.781 107.89 183.5 108.755 183.387 109.729C183.273 110.702 182.374 111.378 181.404 111.242L176.296 110.526C175.433 110.405 174.834 109.608 174.935 108.743C175.036 107.878 175.802 107.24 176.669 107.321L181.805 107.799Z" fill="white"/>
</g>
<path d="M109.364 149L113.412 143.082L109.562 137.406H113.148L115.436 141.058L117.68 137.406H121.156L117.284 143.148L121.42 149H117.834L115.304 145.194L112.796 149H109.364ZM130.333 149.204C129.343 149.204 128.392 149.087 127.48 148.854C126.568 148.622 125.734 148.253 124.977 147.749C124.221 147.244 123.59 146.604 123.086 145.828C122.581 145.032 122.271 144.081 122.154 142.975H126.287C126.423 143.519 126.685 143.975 127.073 144.343C127.48 144.693 127.965 144.945 128.528 145.1C129.11 145.255 129.721 145.333 130.362 145.333C130.789 145.333 131.206 145.294 131.613 145.216C132.04 145.139 132.418 145.003 132.748 144.809C133.097 144.615 133.369 144.353 133.563 144.023C133.757 143.693 133.854 143.276 133.854 142.772C133.854 142.306 133.767 141.918 133.592 141.607C133.418 141.297 133.185 141.045 132.894 140.851C132.603 140.657 132.253 140.521 131.846 140.443C131.458 140.366 131.041 140.327 130.594 140.327H128.208V136.776H129.809C130.313 136.776 130.769 136.728 131.177 136.631C131.584 136.514 131.924 136.359 132.195 136.165C132.486 135.952 132.709 135.699 132.865 135.408C133.02 135.098 133.097 134.749 133.097 134.36C133.097 133.778 132.971 133.322 132.719 132.993C132.467 132.643 132.118 132.391 131.671 132.236C131.225 132.081 130.711 132.003 130.129 132.003C129.586 132.003 129.071 132.09 128.586 132.265C128.121 132.42 127.733 132.653 127.422 132.963C127.112 133.274 126.908 133.652 126.811 134.099H122.765C122.882 133.051 123.163 132.158 123.609 131.421C124.056 130.664 124.628 130.043 125.327 129.558C126.025 129.073 126.801 128.724 127.655 128.51C128.528 128.278 129.43 128.161 130.362 128.161C131.254 128.161 132.108 128.258 132.923 128.452C133.738 128.646 134.465 128.966 135.106 129.413C135.765 129.84 136.289 130.412 136.677 131.13C137.065 131.848 137.259 132.711 137.259 133.72C137.259 134.341 137.153 134.923 136.939 135.466C136.745 136.01 136.454 136.495 136.066 136.922C135.697 137.329 135.261 137.669 134.756 137.94C135.513 138.154 136.134 138.503 136.619 138.988C137.104 139.473 137.463 140.046 137.696 140.705C137.948 141.365 138.074 142.073 138.074 142.83C138.074 144.072 137.841 145.11 137.376 145.944C136.93 146.759 136.328 147.409 135.571 147.894C134.815 148.36 133.98 148.699 133.068 148.913C132.156 149.107 131.244 149.204 130.333 149.204ZM148.88 149.233C147.425 149.233 146.183 148.961 145.155 148.418C144.127 147.875 143.283 147.128 142.623 146.177C141.963 145.226 141.478 144.149 141.168 142.946C140.877 141.724 140.731 140.443 140.731 139.104C140.731 137.63 140.896 136.243 141.226 134.943C141.556 133.623 142.07 132.459 142.768 131.45C143.467 130.422 144.35 129.616 145.417 129.034C146.503 128.452 147.803 128.161 149.317 128.161C150.481 128.161 151.538 128.365 152.489 128.772C153.459 129.18 154.274 129.801 154.934 130.635C155.594 131.45 156.021 132.498 156.215 133.778H152.256C152.024 133.216 151.626 132.769 151.063 132.44C150.52 132.11 149.88 131.945 149.142 131.945C148.463 131.945 147.871 132.071 147.367 132.323C146.862 132.556 146.426 132.886 146.057 133.313C145.708 133.72 145.417 134.186 145.184 134.71C144.951 135.234 144.786 135.787 144.689 136.369C144.592 136.931 144.544 137.494 144.544 138.057C145.009 137.416 145.543 136.912 146.144 136.543C146.765 136.175 147.386 135.922 148.007 135.787C148.628 135.631 149.191 135.554 149.695 135.554C151.073 135.554 152.256 135.825 153.246 136.369C154.235 136.912 154.992 137.678 155.516 138.668C156.059 139.638 156.331 140.793 156.331 142.131C156.331 143.567 156.011 144.819 155.371 145.886C154.73 146.953 153.847 147.778 152.722 148.36C151.616 148.942 150.335 149.233 148.88 149.233ZM148.909 145.42C149.608 145.42 150.19 145.275 150.656 144.984C151.141 144.693 151.509 144.314 151.762 143.849C152.014 143.363 152.14 142.849 152.14 142.306C152.14 141.724 152.014 141.2 151.762 140.734C151.509 140.249 151.15 139.861 150.685 139.57C150.219 139.279 149.647 139.134 148.968 139.134C148.327 139.134 147.735 139.279 147.192 139.57C146.668 139.842 146.261 140.22 145.97 140.705C145.679 141.171 145.533 141.704 145.533 142.306C145.533 142.849 145.669 143.363 145.941 143.849C146.212 144.314 146.6 144.693 147.105 144.984C147.609 145.275 148.211 145.42 148.909 145.42ZM167.129 149.233C165.616 149.233 164.335 148.961 163.288 148.418C162.24 147.875 161.386 147.128 160.726 146.177C160.067 145.207 159.591 144.091 159.3 142.83C159.009 141.549 158.864 140.191 158.864 138.755C158.864 137.281 159.009 135.903 159.3 134.622C159.611 133.342 160.096 132.216 160.756 131.246C161.435 130.276 162.298 129.519 163.346 128.976C164.413 128.433 165.694 128.161 167.188 128.161C168.74 128.161 170.04 128.443 171.088 129.005C172.155 129.568 173.009 130.354 173.649 131.363C174.309 132.352 174.774 133.478 175.046 134.739C175.337 136 175.482 137.319 175.482 138.697C175.482 140.113 175.337 141.452 175.046 142.713C174.755 143.975 174.289 145.1 173.649 146.09C173.009 147.06 172.155 147.826 171.088 148.389C170.02 148.951 168.701 149.233 167.129 149.233ZM167.129 145.391C168.08 145.391 168.827 145.178 169.37 144.751C169.933 144.304 170.35 143.732 170.622 143.034C170.913 142.335 171.097 141.607 171.175 140.851C171.272 140.075 171.32 139.357 171.32 138.697C171.32 138.076 171.272 137.387 171.175 136.631C171.097 135.854 170.923 135.127 170.651 134.448C170.379 133.749 169.972 133.177 169.429 132.731C168.885 132.284 168.148 132.061 167.217 132.061C166.285 132.061 165.538 132.284 164.976 132.731C164.413 133.157 163.986 133.72 163.695 134.419C163.423 135.117 163.239 135.845 163.142 136.602C163.045 137.358 162.997 138.057 162.997 138.697C162.997 139.337 163.035 140.046 163.113 140.822C163.21 141.598 163.394 142.335 163.666 143.034C163.938 143.732 164.345 144.304 164.888 144.751C165.451 145.178 166.198 145.391 167.129 145.391Z" fill="url(#paint12_linear_486_14418)"/>
<rect x="38" y="125.583" width="65" height="28" rx="4" fill="url(#paint13_linear_486_14418)"/>
<path d="M44.74 137.583V130.503H47.84C48.1667 130.503 48.4633 130.536 48.73 130.603C49.0033 130.663 49.24 130.763 49.44 130.903C49.64 131.043 49.7933 131.23 49.9 131.463C50.0133 131.696 50.07 131.993 50.07 132.353C50.07 132.646 50.0033 132.92 49.87 133.173C49.7367 133.426 49.54 133.62 49.28 133.753C49.6267 133.866 49.9 134.063 50.1 134.343C50.3 134.616 50.4 134.98 50.4 135.433C50.4 135.84 50.3233 136.183 50.17 136.463C50.0167 136.736 49.8067 136.956 49.54 137.123C49.2733 137.29 48.9633 137.41 48.61 137.483C48.2567 137.55 47.88 137.583 47.48 137.583H44.74ZM46.17 136.263H47.65C47.83 136.263 47.9967 136.25 48.15 136.223C48.31 136.196 48.45 136.153 48.57 136.093C48.69 136.026 48.7833 135.936 48.85 135.823C48.9233 135.71 48.96 135.57 48.96 135.403C48.96 135.25 48.93 135.123 48.87 135.023C48.8167 134.916 48.7367 134.83 48.63 134.763C48.53 134.696 48.41 134.65 48.27 134.623C48.1367 134.596 47.9867 134.583 47.82 134.583H46.17V136.263ZM46.17 133.393H47.48C47.66 133.393 47.8233 133.376 47.97 133.343C48.1167 133.31 48.24 133.256 48.34 133.183C48.44 133.11 48.5167 133.02 48.57 132.913C48.6233 132.8 48.65 132.67 48.65 132.523C48.6567 132.323 48.6133 132.176 48.52 132.083C48.4267 131.983 48.3 131.916 48.14 131.883C47.98 131.843 47.8 131.823 47.6 131.823H46.17V133.393ZM55.1176 137.663C54.3909 137.663 53.7642 137.51 53.2376 137.203C52.7176 136.896 52.3176 136.473 52.0376 135.933C51.7642 135.386 51.6276 134.76 51.6276 134.053C51.6276 133.333 51.7676 132.7 52.0476 132.153C52.3342 131.606 52.7409 131.183 53.2676 130.883C53.7942 130.576 54.4209 130.423 55.1476 130.423C55.8676 130.423 56.4876 130.573 57.0076 130.873C57.5276 131.173 57.9276 131.593 58.2076 132.133C58.4942 132.673 58.6376 133.303 58.6376 134.023C58.6376 134.73 58.4942 135.36 58.2076 135.913C57.9276 136.46 57.5242 136.89 56.9976 137.203C56.4776 137.51 55.8509 137.663 55.1176 137.663ZM55.1376 136.323C55.6176 136.323 56.0076 136.213 56.3076 135.993C56.6076 135.773 56.8242 135.49 56.9576 135.143C57.0976 134.796 57.1676 134.433 57.1676 134.053C57.1676 133.773 57.1276 133.496 57.0476 133.223C56.9742 132.95 56.8576 132.703 56.6976 132.483C56.5376 132.263 56.3276 132.09 56.0676 131.963C55.8076 131.83 55.4942 131.763 55.1276 131.763C54.6542 131.763 54.2676 131.873 53.9676 132.093C53.6676 132.306 53.4442 132.586 53.2976 132.933C53.1576 133.28 53.0876 133.65 53.0876 134.043C53.0876 134.436 53.1576 134.806 53.2976 135.153C53.4442 135.5 53.6676 135.783 53.9676 136.003C54.2742 136.216 54.6642 136.323 55.1376 136.323ZM63.4594 137.663C62.7327 137.663 62.106 137.51 61.5794 137.203C61.0594 136.896 60.6594 136.473 60.3794 135.933C60.106 135.386 59.9694 134.76 59.9694 134.053C59.9694 133.333 60.1094 132.7 60.3894 132.153C60.676 131.606 61.0827 131.183 61.6094 130.883C62.136 130.576 62.7627 130.423 63.4894 130.423C64.2094 130.423 64.8294 130.573 65.3494 130.873C65.8694 131.173 66.2694 131.593 66.5494 132.133C66.836 132.673 66.9794 133.303 66.9794 134.023C66.9794 134.73 66.836 135.36 66.5494 135.913C66.2694 136.46 65.866 136.89 65.3394 137.203C64.8194 137.51 64.1927 137.663 63.4594 137.663ZM63.4794 136.323C63.9594 136.323 64.3494 136.213 64.6494 135.993C64.9494 135.773 65.166 135.49 65.2994 135.143C65.4394 134.796 65.5094 134.433 65.5094 134.053C65.5094 133.773 65.4694 133.496 65.3894 133.223C65.316 132.95 65.1994 132.703 65.0394 132.483C64.8794 132.263 64.6694 132.09 64.4094 131.963C64.1494 131.83 63.836 131.763 63.4694 131.763C62.996 131.763 62.6094 131.873 62.3094 132.093C62.0094 132.306 61.786 132.586 61.6394 132.933C61.4994 133.28 61.4294 133.65 61.4294 134.043C61.4294 134.436 61.4994 134.806 61.6394 135.153C61.786 135.5 62.0094 135.783 62.3094 136.003C62.616 136.216 63.006 136.323 63.4794 136.323ZM71.3712 137.663C70.8778 137.663 70.4178 137.586 69.9912 137.433C69.5712 137.28 69.2178 137.036 68.9312 136.703C68.6512 136.37 68.4745 135.94 68.4012 135.413H69.8612C69.9212 135.64 70.0312 135.823 70.1912 135.963C70.3512 136.096 70.5412 136.193 70.7612 136.253C70.9878 136.313 71.2245 136.343 71.4712 136.343C71.6578 136.343 71.8412 136.32 72.0212 136.273C72.2012 136.226 72.3478 136.146 72.4612 136.033C72.5812 135.92 72.6412 135.766 72.6412 135.573C72.6412 135.426 72.6078 135.306 72.5412 135.213C72.4812 135.12 72.3912 135.046 72.2712 134.993C72.1578 134.933 72.0178 134.88 71.8512 134.833C71.7112 134.793 71.5645 134.76 71.4112 134.733C71.2645 134.706 71.1178 134.673 70.9712 134.633C70.8312 134.593 70.6945 134.546 70.5612 134.493C70.3078 134.426 70.0645 134.346 69.8312 134.253C69.5978 134.153 69.3912 134.03 69.2112 133.883C69.0312 133.73 68.8878 133.54 68.7812 133.313C68.6812 133.086 68.6312 132.813 68.6312 132.493C68.6312 132.146 68.6878 131.853 68.8012 131.613C68.9212 131.373 69.0778 131.176 69.2712 131.023C69.4712 130.863 69.6912 130.74 69.9312 130.653C70.1778 130.566 70.4245 130.506 70.6712 130.473C70.9178 130.44 71.1512 130.423 71.3712 130.423C71.8312 130.423 72.2445 130.503 72.6112 130.663C72.9778 130.823 73.2778 131.063 73.5112 131.383C73.7445 131.703 73.8778 132.106 73.9112 132.593H72.5212C72.4945 132.393 72.4212 132.23 72.3012 132.103C72.1812 131.976 72.0278 131.883 71.8412 131.823C71.6612 131.763 71.4578 131.733 71.2312 131.733C71.0845 131.733 70.9412 131.746 70.8012 131.773C70.6612 131.8 70.5345 131.843 70.4212 131.903C70.3145 131.956 70.2278 132.03 70.1612 132.123C70.1012 132.216 70.0712 132.33 70.0712 132.463C70.0712 132.596 70.1078 132.713 70.1812 132.813C70.2545 132.906 70.3612 132.99 70.5012 133.063C70.6478 133.13 70.8178 133.193 71.0112 133.253C71.2112 133.32 71.4212 133.373 71.6412 133.413C71.8612 133.453 72.0712 133.506 72.2712 133.573C72.5245 133.64 72.7612 133.72 72.9812 133.813C73.2012 133.9 73.3945 134.013 73.5612 134.153C73.7278 134.286 73.8578 134.46 73.9512 134.673C74.0445 134.88 74.0912 135.136 74.0912 135.443C74.0912 135.85 74.0145 136.196 73.8612 136.483C73.7145 136.763 73.5112 136.99 73.2512 137.163C72.9978 137.336 72.7078 137.463 72.3812 137.543C72.0545 137.623 71.7178 137.663 71.3712 137.663ZM77.2051 137.583V131.833H75.0451V130.503H80.8151V131.833H78.6451V137.583H77.2051ZM82.1523 137.583V130.503H87.2523V131.833H83.5823V133.433H86.7323V134.713H83.5823V136.263H87.2523V137.583H82.1523ZM88.8633 137.583V130.503H91.5333C92.2733 130.503 92.9033 130.643 93.4233 130.923C93.9499 131.203 94.3499 131.606 94.6233 132.133C94.9033 132.66 95.0433 133.303 95.0433 134.063C95.0433 134.81 94.9066 135.446 94.6333 135.973C94.3666 136.493 93.9733 136.893 93.4533 137.173C92.9333 137.446 92.2966 137.583 91.5433 137.583H88.8633ZM90.2933 136.263H91.5333C92.0266 136.263 92.4233 136.17 92.7233 135.983C93.0233 135.796 93.2433 135.536 93.3833 135.203C93.5233 134.87 93.5933 134.486 93.5933 134.053C93.5933 133.633 93.5233 133.256 93.3833 132.923C93.2499 132.583 93.0299 132.316 92.7233 132.123C92.4233 131.93 92.0166 131.833 91.5033 131.833H90.2933V136.263ZM44.6552 148.583V142.398H46.3151L47.9662 145.386L49.5998 142.398H51.1986V148.583H49.9493V144.066L48.1933 147.203H47.6866L45.9045 144.066V148.583H44.6552ZM55.0897 148.653C54.484 148.653 53.9861 148.539 53.5959 148.312C53.2115 148.085 52.9261 147.759 52.7397 147.334C52.5592 146.909 52.4689 146.399 52.4689 145.805V142.398H53.7182V145.866C53.7182 146.146 53.7589 146.411 53.8405 146.661C53.9278 146.906 54.0705 147.107 54.2685 147.264C54.4724 147.415 54.749 147.491 55.0985 147.491C55.4537 147.491 55.7275 147.415 55.9197 147.264C56.1119 147.107 56.2458 146.903 56.3215 146.652C56.3972 146.402 56.4351 146.14 56.4351 145.866V142.398H57.6844V145.805C57.6844 146.393 57.5941 146.903 57.4136 147.334C57.233 147.759 56.9505 148.085 56.5661 148.312C56.1818 148.539 55.6896 148.653 55.0897 148.653ZM58.9538 148.583V142.398H60.203V147.43H63.3393V148.583H58.9538ZM65.1015 148.583V143.56H63.2145V142.398H68.2552V143.56H66.3595V148.583H65.1015ZM68.9866 148.583V142.398H70.2359V148.583H68.9866ZM71.5461 148.583V142.398H73.9572C74.429 142.398 74.8396 142.471 75.189 142.616C75.5443 142.756 75.818 142.983 76.0102 143.298C76.2024 143.606 76.2985 144.02 76.2985 144.538C76.2985 145.022 76.1908 145.426 75.9753 145.753C75.7656 146.079 75.4773 146.323 75.1104 146.486C74.7435 146.644 74.3271 146.722 73.8611 146.722H72.7953V148.583H71.5461ZM72.7953 145.604H73.8437C74.2164 145.604 74.5105 145.517 74.726 145.342C74.9473 145.161 75.058 144.891 75.058 144.529C75.058 144.209 74.9648 143.967 74.7784 143.804C74.5979 143.641 74.3067 143.56 73.9048 143.56H72.7953V145.604ZM77.2535 148.583V142.398H78.5028V147.43H81.6391V148.583H77.2535ZM82.4406 148.583V142.398H83.6899V148.583H82.4406ZM85 148.583V142.398H89.4554V143.56H86.2493V144.958H89.0012V146.076H86.2493V147.43H89.4554V148.583H85ZM90.426 148.583V142.398H92.9157C93.2244 142.398 93.5185 142.43 93.7981 142.494C94.0835 142.552 94.3397 142.654 94.5669 142.8C94.794 142.945 94.9716 143.149 95.0998 143.411C95.2337 143.667 95.3007 143.997 95.3007 144.398C95.3007 144.695 95.2512 144.963 95.1522 145.202C95.0532 145.441 94.9076 145.645 94.7154 145.814C94.5232 145.983 94.2931 146.114 94.0252 146.207L95.3968 148.583H93.9903L92.7847 146.408H91.6752V148.583H90.426ZM91.6752 145.298H92.8284C93.0089 145.298 93.172 145.284 93.3176 145.255C93.469 145.22 93.5972 145.167 93.702 145.097C93.8127 145.027 93.8971 144.934 93.9553 144.818C94.0194 144.701 94.0514 144.559 94.0514 144.39C94.0573 144.174 94.0107 144.008 93.9117 143.892C93.8185 143.769 93.6845 143.685 93.5098 143.638C93.3409 143.586 93.14 143.56 92.907 143.56H91.6752V145.298Z" fill="white"/>
</g>
<defs>
<clipPath id="paint1_angular_486_14418_clip_path"><path d="M185.002 121.491C188.841 122.649 192.932 120.51 193.812 116.598C196.283 105.612 196.561 94.2385 194.603 83.108C192.227 69.5992 186.625 56.8288 178.252 45.834C169.879 34.8392 158.972 25.9301 146.415 19.8302C133.859 13.7303 120.008 10.6117 105.987 10.7277C91.9661 10.8437 78.171 14.191 65.722 20.4977C53.2729 26.8044 42.5211 35.8928 34.3398 47.0245C26.1584 58.1562 20.7783 71.0175 18.6363 84.5636C16.8711 95.7269 17.346 107.096 20.0086 118.041C20.9561 121.936 25.0803 124.004 28.8982 122.783L59.353 113.039C63.2439 111.794 65.2941 107.603 64.7219 103.558C64.1595 99.5827 64.1886 95.535 64.8199 91.5427C65.8391 85.0973 68.399 78.9777 72.2918 73.6811C76.1846 68.3845 81.3004 64.0602 87.2238 61.0594C93.1472 58.0586 99.7111 56.4659 106.382 56.4107C113.054 56.3555 119.644 57.8394 125.619 60.7418C131.593 63.6442 136.783 67.8832 140.767 73.1147C144.751 78.3461 147.416 84.4225 148.547 90.8501C149.248 94.8325 149.347 98.8803 148.853 102.866C148.35 106.918 150.47 111.072 154.379 112.251L185.002 121.491Z"/></clipPath><filter id="filter0_d_486_14418" x="4.71044" y="-2.15479" width="204.06" height="137.514" filterUnits="userSpaceOnUse" color-interpolation-filters="sRGB">
<feFlood flood-opacity="0" result="BackgroundImageFix"/>
<feColorMatrix in="SourceAlpha" type="matrix" values="0 0 0 0 0 0 0 0 0 0 0 0 0 0 0 0 0 0 127 0" result="hardAlpha"/>
<feOffset/>
<feGaussianBlur stdDeviation="4.88501"/>
<feComposite in2="hardAlpha" operator="out"/>
<feColorMatrix type="matrix" values="0 0 0 0 0 0 0 0 0 0 0 0 0 0 0 0 0 0 1 0"/>
<feBlend mode="overlay" in2="BackgroundImageFix" result="effect1_dropShadow_486_14418"/>
<feBlend mode="normal" in="SourceGraphic" in2="effect1_dropShadow_486_14418" result="shape"/>
</filter>
<clipPath id="paint2_angular_486_14418_clip_path"><path d="M189.246 124.848C192.017 125.754 195.019 124.268 195.797 121.458C199.146 109.352 199.884 96.6766 197.942 84.2413C195.729 70.0734 190.099 56.6247 181.518 45.0082C172.937 33.3917 161.653 23.9413 148.597 17.4389C135.542 10.9366 121.092 7.56931 106.442 7.61571C91.7923 7.6621 77.3646 11.1208 64.3526 17.7057C51.3406 24.2906 40.1184 33.8123 31.6147 45.4829C23.111 57.1536 17.5703 70.6376 15.451 84.8192C13.6016 97.1947 14.4041 109.791 17.7834 121.812C18.6052 124.736 21.7422 126.263 24.6226 125.301L29.8822 123.545C30.8216 123.231 31.3209 122.21 31.0167 121.268C27.4095 110.09 26.4318 98.2513 28.1673 86.6381C29.9914 74.4319 34.7603 62.8262 42.0795 52.7812C49.3986 42.7363 59.0576 34.5409 70.2571 28.8733C81.4565 23.2056 93.8746 20.2287 106.484 20.1888C119.093 20.1488 131.53 23.0471 142.767 28.6437C154.004 34.2402 163.716 42.3742 171.102 52.3726C178.487 62.371 183.333 73.9463 185.238 86.1407C187.05 97.7428 186.151 109.588 182.618 120.788C182.32 121.732 182.826 122.75 183.767 123.057L189.246 124.848Z"/></clipPath><filter id="filter1_f_486_14418" x="83.8453" y="16.7194" width="104.94" height="106.491" filterUnits="userSpaceOnUse" color-interpolation-filters="sRGB">
<feFlood flood-opacity="0" result="BackgroundImageFix"/>
<feBlend mode="normal" in="SourceGraphic" in2="BackgroundImageFix" result="shape"/>
<feGaussianBlur stdDeviation="0.999207" result="effect1_foregroundBlur_486_14418"/>
</filter>
<clipPath id="paint3_angular_486_14418_clip_path"><path d="M182.567 121.183C182.917 121.29 183.288 121.094 183.395 120.743C187.455 107.421 187.88 93.2778 184.622 79.7359C181.312 65.9796 174.322 53.3439 164.377 43.1381C154.431 32.9324 141.891 25.528 128.057 21.692C114.436 17.9153 100.047 17.7331 86.3385 21.1583C85.9836 21.2469 85.7719 21.6098 85.8663 21.9632C85.9597 22.3125 86.3173 22.5208 86.668 22.4332C100.149 19.065 114.299 19.2441 127.694 22.9582C141.299 26.7304 153.63 34.012 163.411 44.0484C173.192 54.0848 180.065 66.5108 183.32 80.0388C186.522 93.3484 186.106 107.248 182.121 120.343C182.013 120.698 182.211 121.076 182.567 121.183Z"/></clipPath><filter id="filter2_d_486_14418" x="10.9277" y="4.0625" width="191.625" height="125.137" filterUnits="userSpaceOnUse" color-interpolation-filters="sRGB">
<feFlood flood-opacity="0" result="BackgroundImageFix"/>
<feColorMatrix in="SourceAlpha" type="matrix" values="0 0 0 0 0 0 0 0 0 0 0 0 0 0 0 0 0 0 127 0" result="hardAlpha"/>
<feOffset/>
<feGaussianBlur stdDeviation="1.77637"/>
<feComposite in2="hardAlpha" operator="out"/>
<feColorMatrix type="matrix" values="0 0 0 0 0 0 0 0 0 0 0 0 0 0 0 0 0 0 0.49 0"/>
<feBlend mode="overlay" in2="BackgroundImageFix" result="effect1_dropShadow_486_14418"/>
<feBlend mode="normal" in="SourceGraphic" in2="effect1_dropShadow_486_14418" result="shape"/>
</filter>
<clipPath id="paint4_angular_486_14418_clip_path"><path d="M189.038 124.78C191.925 125.724 195.052 124.176 195.855 121.247C199.154 109.205 199.873 96.6043 197.942 84.2413C195.729 70.0734 190.099 56.6247 181.518 45.0082C172.937 33.3917 161.653 23.9413 148.597 17.4389C135.542 10.9366 121.092 7.56931 106.442 7.61571C91.7923 7.6621 77.3646 11.1208 64.3526 17.7057C51.3406 24.2906 40.1184 33.8123 31.6147 45.4829C23.111 57.1536 17.5703 70.6376 15.451 84.8192C13.5908 97.2671 14.4135 109.938 17.843 122.023C18.6389 124.828 21.6496 126.294 24.4148 125.371L26.8744 124.549C27.8137 124.236 28.3131 123.215 28.0081 122.272C24.2384 110.628 23.214 98.2901 25.0225 86.1883C26.9196 73.4936 31.8794 61.4233 39.4915 50.9763C47.1036 40.5293 57.1491 32.006 68.7969 26.1115C80.4446 20.217 93.3596 17.1209 106.473 17.0794C119.587 17.0379 132.522 20.0521 144.209 25.8727C155.895 31.6933 165.997 40.1528 173.678 50.5514C181.359 60.9499 186.399 72.9885 188.38 85.671C190.268 97.7611 189.325 110.105 185.633 121.773C185.334 122.718 185.84 123.735 186.781 124.043L189.038 124.78Z"/></clipPath><filter id="filter3_d_486_14418" x="84.3339" y="47.2295" width="73.5464" height="87.9815" filterUnits="userSpaceOnUse" color-interpolation-filters="sRGB">
<feFlood flood-opacity="0" result="BackgroundImageFix"/>
<feColorMatrix in="SourceAlpha" type="matrix" values="0 0 0 0 0 0 0 0 0 0 0 0 0 0 0 0 0 0 127 0" result="hardAlpha"/>
<feOffset dx="5.10706" dy="8.43775"/>
<feGaussianBlur stdDeviation="2.8866"/>
<feComposite in2="hardAlpha" operator="out"/>
<feColorMatrix type="matrix" values="0 0 0 0 0 0 0 0 0 0 0 0 0 0 0 0 0 0 0.71 0"/>
<feBlend mode="overlay" in2="BackgroundImageFix" result="effect1_dropShadow_486_14418"/>
<feBlend mode="normal" in="SourceGraphic" in2="effect1_dropShadow_486_14418" result="shape"/>
</filter>
<filter id="filter4_dii_486_14418" x="95.6819" y="85.4856" width="24.558" height="24.558" filterUnits="userSpaceOnUse" color-interpolation-filters="sRGB">
<feFlood flood-opacity="0" result="BackgroundImageFix"/>
<feColorMatrix in="SourceAlpha" type="matrix" values="0 0 0 0 0 0 0 0 0 0 0 0 0 0 0 0 0 0 127 0" result="hardAlpha"/>
<feOffset/>
<feGaussianBlur stdDeviation="0.477399"/>
<feComposite in2="hardAlpha" operator="out"/>
<feColorMatrix type="matrix" values="0 0 0 0 0 0 0 0 0 0 0 0 0 0 0 0 0 0 0.25 0"/>
<feBlend mode="normal" in2="BackgroundImageFix" result="effect1_dropShadow_486_14418"/>
<feBlend mode="normal" in="SourceGraphic" in2="effect1_dropShadow_486_14418" result="shape"/>
<feColorMatrix in="SourceAlpha" type="matrix" values="0 0 0 0 0 0 0 0 0 0 0 0 0 0 0 0 0 0 127 0" result="hardAlpha"/>
<feOffset dx="-0.222046" dy="-0.222046"/>
<feComposite in2="hardAlpha" operator="arithmetic" k2="-1" k3="1"/>
<feColorMatrix type="matrix" values="0 0 0 0 0 0 0 0 0 0.10917 0 0 0 0 1 0 0 0 1 0"/>
<feBlend mode="normal" in2="shape" result="effect2_innerShadow_486_14418"/>
<feColorMatrix in="SourceAlpha" type="matrix" values="0 0 0 0 0 0 0 0 0 0 0 0 0 0 0 0 0 0 127 0" result="hardAlpha"/>
<feOffset dy="0.888184"/>
<feGaussianBlur stdDeviation="0.444092"/>
<feComposite in2="hardAlpha" operator="arithmetic" k2="-1" k3="1"/>
<feColorMatrix type="matrix" values="0 0 0 0 1 0 0 0 0 1 0 0 0 0 1 0 0 0 1 0"/>
<feBlend mode="normal" in2="effect2_innerShadow_486_14418" result="effect3_innerShadow_486_14418"/>
</filter>
<filter id="filter5_i_486_14418" x="96.6373" y="86.441" width="22.2045" height="22.2045" filterUnits="userSpaceOnUse" color-interpolation-filters="sRGB">
<feFlood flood-opacity="0" result="BackgroundImageFix"/>
<feBlend mode="normal" in="SourceGraphic" in2="BackgroundImageFix" result="shape"/>
<feColorMatrix in="SourceAlpha" type="matrix" values="0 0 0 0 0 0 0 0 0 0 0 0 0 0 0 0 0 0 127 0" result="hardAlpha"/>
<feOffset dx="-0.222046" dy="-0.222046"/>
<feGaussianBlur stdDeviation="0.444092"/>
<feComposite in2="hardAlpha" operator="arithmetic" k2="-1" k3="1"/>
<feColorMatrix type="matrix" values="0 0 0 0 1 0 0 0 0 1 0 0 0 0 1 0 0 0 1 0"/>
<feBlend mode="normal" in2="shape" result="effect1_innerShadow_486_14418"/>
</filter>
<filter id="filter6_d_486_14418" x="30.1509" y="24.4902" width="154.513" height="88.5449" filterUnits="userSpaceOnUse" color-interpolation-filters="sRGB">
<feFlood flood-opacity="0" result="BackgroundImageFix"/>
<feColorMatrix in="SourceAlpha" type="matrix" values="0 0 0 0 0 0 0 0 0 0 0 0 0 0 0 0 0 0 127 0" result="hardAlpha"/>
<feOffset dy="0.888184"/>
<feGaussianBlur stdDeviation="0.444092"/>
<feComposite in2="hardAlpha" operator="out"/>
<feColorMatrix type="matrix" values="0 0 0 0 0 0 0 0 0 0 0 0 0 0 0 0 0 0 0.25 0"/>
<feBlend mode="overlay" in2="BackgroundImageFix" result="effect1_dropShadow_486_14418"/>
<feBlend mode="normal" in="SourceGraphic" in2="effect1_dropShadow_486_14418" result="shape"/>
</filter>
<linearGradient id="paint0_linear_486_14418" x1="107" y1="-85.9893" x2="107" y2="234.011" gradientUnits="userSpaceOnUse">
<stop stop-color="#196AFF"/>
<stop offset="0.333408" stop-color="#9BBEFF" stop-opacity="0.433622"/>
<stop offset="0.498883" stop-color="#ACC9FF" stop-opacity="0.361804"/>
<stop offset="0.8" stop-color="#C2D7FF" stop-opacity="0.265678"/>
<stop offset="0.95" stop-color="#DBE8FF" stop-opacity="0.155954"/>
</linearGradient>
<linearGradient id="paint5_linear_486_14418" x1="85" y1="75" x2="143.5" y2="133.5" gradientUnits="userSpaceOnUse">
<stop offset="0.186615" stop-color="#F8FDFF"/>
<stop offset="1" stop-color="#92BBFF"/>
</linearGradient>
<linearGradient id="paint6_linear_486_14418" x1="93.9727" y1="83.7764" x2="121.95" y2="111.754" gradientUnits="userSpaceOnUse">
<stop stop-color="#069BFF"/>
<stop offset="0.186615" stop-color="#76CCFF"/>
<stop offset="1" stop-color="#015EF7"/>
</linearGradient>
<linearGradient id="paint7_linear_486_14418" x1="98.5179" y1="88.3197" x2="117.586" y2="108.395" gradientUnits="userSpaceOnUse">
<stop stop-color="white"/>
<stop offset="0.549321" stop-color="#6FBDFC"/>
<stop offset="1" stop-color="#023B99"/>
</linearGradient>
<linearGradient id="paint8_linear_486_14418" x1="100.189" y1="91.4365" x2="115.844" y2="107.091" gradientUnits="userSpaceOnUse">
<stop stop-color="#F9FAF7"/>
<stop offset="1" stop-color="#D3E3FB"/>
</linearGradient>
<linearGradient id="paint9_linear_486_14418" x1="100.032" y1="89.8358" x2="114.876" y2="105.02" gradientUnits="userSpaceOnUse">
<stop stop-color="#F8F5F4"/>
<stop offset="1" stop-color="#D1E4F8"/>
</linearGradient>
<linearGradient id="paint10_linear_486_14418" x1="115.178" y1="105.87" x2="101.42" y2="88.1832" gradientUnits="userSpaceOnUse">
<stop stop-color="#0054FF"/>
<stop offset="0.15467" stop-color="#1E68FE"/>
<stop offset="0.539074" stop-color="#E6EFF9"/>
<stop offset="1" stop-color="#FCFCFB" stop-opacity="0.12"/>
</linearGradient>
<linearGradient id="paint11_linear_486_14418" x1="114.543" y1="105.253" x2="101.504" y2="88.3588" gradientUnits="userSpaceOnUse">
<stop stop-color="white"/>
<stop offset="0.423303" stop-color="#E6EFF9"/>
<stop offset="1" stop-color="#FCFCFB"/>
</linearGradient>
<linearGradient id="paint12_linear_486_14418" x1="93" y1="95" x2="117.566" y2="169.579" gradientUnits="userSpaceOnUse">
<stop offset="0.327566" stop-color="white"/>
<stop offset="0.483914" stop-color="#6FBDFC"/>
<stop offset="0.622561" stop-color="#32B9FE"/>
<stop offset="0.966406" stop-color="#023B99"/>
</linearGradient>
<linearGradient id="paint13_linear_486_14418" x1="51.0496" y1="117.426" x2="97.3131" y2="123.612" gradientUnits="userSpaceOnUse">
<stop stop-color="#FF9650"/>
<stop offset="1" stop-color="#EB5D18"/>
</linearGradient>
<clipPath id="clip0_486_14418">
<path d="M0 0H214V160H0V0Z" fill="white"/>
</clipPath>
</defs>
</svg>
